PathFileType	4	(X/Y/Z)	C:\Users\ebm\Documents\Erivelton\Erivelton2\wc6.trc
DataRate	CameraRate	NumFrames	NumMarkers	Units	OrigDataRate	OrigDataStartFrame	OrigNumFrames
150.00	150.00	      25	28	mm	150.00	1010	      1154
Frame#	Time	IJ			PX			C7			T8			RAC			RAS			RPS			RAI			RPI			RLE			RME			RRS			RUS			R3M			R5M			LAC			LAS			LPS			LAI			LPI			LLE			LME			LRS			LUS			L3M			L5M			RW			LW			V_mid_elbow_r			V_mid_elbow_l			V_mid_wrist_r			V_mid_wrist_l			V_mid_trunk_low			V_mid_trunk_upp			
		X1	Y1	Z1	X2	Y2	Z2	X3	Y3	Z3	X4	Y4	Z4	X5	Y5	Z5	X6	Y6	Z6	X7	Y7	Z7	X8	Y8	Z8	X9	Y9	Z9	X10	Y10	Z10	X11	Y11	Z11	X12	Y12	Z12	X13	Y13	Z13	X14	Y14	Z14	X15	Y15	Z15	X16	Y16	Z16	X17	Y17	Z17	X18	Y18	Z18	X19	Y19	Z19	X20	Y20	Z20	X21	Y21	Z21	X22	Y22	Z22	X23	Y23	Z23	X24	Y24	Z24	X25	Y25	Z25	X26	Y26	Z26	X27	Y27	Z27	X28	Y28	Z28	

1010	6.727																			4449.54785	896.55304	252.70392	4482.93604	809.58179	271.08795	4435.78027	825.61719	288.63089	4435.32520	758.03735	307.44089																						4409.50146	886.93127	-296.79834	4454.94043	809.42914	-334.97858	4401.81982	806.87744	-320.50751													4619.01611	428.14429	-353.04712							4400.18945	288.67017	-333.56531	
1011	6.733																			4456.42041	897.30707	252.19121	4490.61865	809.97650	271.58798	4443.06299	826.30481	288.73898	4442.49023	758.19598	307.60104																						4418.07031	886.49670	-297.00629	4463.66162	808.84729	-335.22653	4410.53320	806.11108	-320.30551													4625.68750	429.81509	-355.57095							4409.21484	288.71002	-333.93619	
1012	6.740																			4464.81055	897.54462	252.07361	4498.19385	810.46320	271.86310	4449.61084	827.27118	288.56320	4449.71387	758.71918	308.02759																						4426.70264	885.82886	-296.94263	4472.18994	808.36346	-335.38843	4419.36279	805.58069	-320.27588													4639.03125	427.13019	-353.46619							4418.61426	288.53784	-333.95322	
1013	6.747																			4472.60791	898.05542	251.80626	4506.71729	810.18689	273.88742	4457.48682	827.46851	288.65207	4457.03320	759.14899	308.29941																						4435.55469	885.38110	-297.13898	4481.24902	807.90387	-335.51993	4428.25391	804.93860	-320.20990													4648.91650	426.60092	-353.72327							4427.79248	288.45953	-334.14780	
1014	6.753																			4480.71045	898.44122	251.58133	4514.61572	810.40491	274.43011	4465.33008	828.04919	288.63934	4464.48291	759.68463	308.29517																						4444.39453	884.75964	-297.02780	4490.08350	807.50745	-335.69312	4437.15039	804.43695	-320.27637													4658.28223	426.22723	-354.17477							4437.10693	288.23727	-334.46872	
1015	6.760																			4488.86816	898.73987	251.21225	4522.47559	810.68384	274.55789	4472.96094	828.56244	288.39005	4472.07910	760.50433	308.56412																						4453.33496	884.34070	-297.14819	4498.99902	806.87628	-335.57663	4446.11816	803.82263	-320.18921																						4446.07227	288.26590	-334.60568	
1016	6.767																			4497.14209	899.17560	250.78946				4480.59912	829.29590	288.02512	4480.06348	760.97797	308.42682																						4462.05908	883.19098	-296.89169	4507.89063	806.34436	-335.71649	4455.17285	803.16772	-320.12839																						4455.26807	288.18207	-334.90314	
1017	6.773																			4505.43311	899.57202	250.37199				4488.37207	829.80353	287.61276	4487.76270	761.54669	308.19760																						4471.08252	883.20160	-297.14236	4516.94580	805.74084	-335.62634	4464.23730	802.60956	-320.06555																									
1018	6.780																			4513.74707	899.95148	249.92871				4496.40186	830.36591	287.24408	4494.83594	761.88947	307.76065																						4480.10840	882.45642	-297.27963	4526.01904	805.21960	-335.71866	4473.15479	801.85681	-319.94037																									
1019	6.787																			4522.43701	900.29980	249.57251				4504.23877	830.94977	286.69766	4502.64746	762.41937	307.52176																						4488.94678	881.82495	-297.26486	4534.96338	804.69049	-335.84262	4482.22559	801.26520	-319.89090																									
1020	6.793																			4530.46240	900.97156	248.79008				4512.00928	831.54767	286.14963	4510.30566	762.96960	307.05032																						4497.68945	880.66943	-297.19345	4543.89990	803.99481	-335.71591	4491.18213	800.43207	-319.64185																									
1021	6.800																			4538.87695	901.41376	248.27539				4520.30859	832.15228	285.45328	4518.44971	763.49030	306.46039																						4506.54639	880.11865	-297.27228				4500.20068	799.87933	-319.59625																									
1022	6.807																			4547.14404	901.92120	247.71710				4528.31592	832.65009	284.78564	4526.11475	764.10370	305.89081																						4515.34424	879.46436	-297.44629				4509.30615	799.08319	-319.54974																									
1023	6.813																			4555.52979	902.41827	247.21933				4536.41260	833.05103	284.23880	4533.79346	764.56720	305.23190																						4524.48975	879.31512	-297.62073				4518.27490	798.62762	-319.74539																									
1024	6.820																			4563.91846	902.73364	246.58629				4544.33105	833.54620	283.50656	4542.02197	764.90906	304.56168																						4533.21289	878.25256	-297.61038				4527.28857	797.42303	-319.42178																									
1025	6.827																			4572.19629	903.28540	246.10521				4552.60889	833.98590	282.84088	4549.82178	765.40289	303.79721																						4542.01904	877.52496	-297.83292				4536.41895	796.68964	-319.51474																									
1026	6.833																			4580.69434	903.61798	245.53499				4560.83301	834.41339	282.21426	4557.87158	765.72852	303.04239																						4551.17188	876.94824	-298.04709				4545.88086	796.02838	-319.70584																									
1027	6.840																			4589.08203	904.07745	244.81998				4568.62939	834.92163	281.43146	4565.71484	766.16180	302.27716																						4560.16016	876.33588	-298.36642				4555.33740	795.80176	-320.23868																									
1028	6.847																			4597.22900	904.63403	244.21089				4577.09521	835.25775	280.68567	4573.91406	766.59406	301.46970																						4569.44873	875.77014	-298.69580				4564.69580	795.24268	-320.50381																									
1029	6.853																			4605.67822	905.05170	243.53879				4585.33643	835.71887	279.85297	4581.96924	766.92529	300.61584																						4578.59375	875.27411	-299.06378				4573.89795	794.33759	-320.55048																									
1030	6.860																			4614.34814	905.37006	242.76564				4593.35596	836.24109	279.06067	4590.34131	767.23846	299.92050																						4587.60938	874.87231	-299.44888				4583.35449	793.92877	-320.85486																									
1031	6.867																			4622.67432	905.85657	242.17464				4601.93945	836.59149	278.42435	4598.59229	767.76172	299.22757																						4597.09131	874.50269	-299.94583				4592.56641	793.45020	-321.23660																									
1032	6.873																			4631.30615	906.20441	241.39560				4610.14551	837.14111	277.76675	4606.97559	768.15222	298.45828																						4606.14453	874.09613	-300.54697				4601.90332	793.10254	-321.66025																									
1033	6.880																			4639.84180	906.77283	240.64114				4618.61182	837.61804	276.89645	4615.21729	768.62079	297.93689																						4615.27637	873.74109	-301.03412				4611.17627	792.64478	-322.24585																									
1034	6.887																			4648.54883	907.19391	239.97409				4627.37939	838.07581	276.23938	4623.56836	769.19775	297.28360																						4624.55420	873.36334	-301.69000				4620.89600	792.72296	-323.05078																									
